<?xml version="1.0" encoding="UTF-8" standalone="no"?><!DOCTYPE svg PUBLIC "-//W3C//DTD SVG 1.1//EN" "http://www.w3.org/Graphics/SVG/1.1/DTD/svg11.dtd"><svg width="100%" height="100%" viewBox="0 0 4267 4267" version="1.1" xmlns="http://www.w3.org/2000/svg" xmlns:xlink="http://www.w3.org/1999/xlink" xml:space="preserve" xmlns:serif="http://www.serif.com/" style="fill-rule:evenodd;clip-rule:evenodd;stroke-linejoin:round;stroke-miterlimit:2;"><rect id="Full_Size_Logo" x="0" y="0" width="4266.67" height="4266.67" style="fill:none;"/><circle cx="2133.33" cy="2133.33" r="2133.33" style="fill:#fff;"/><path d="M890.345,2119.65c-214.476,681.889 450.115,754.399 920.734,1143.6c18.272,15.11 -304.89,-48.449 -497.815,-93.567c-30.347,-7.098 -385.566,-90.473 -696.055,-341.685c-209.061,-169.149 -403.412,-439.458 -443.624,-719.167c-25.717,-418.507 33.284,-637.953 228.067,-985.057c182.543,-320.351 461.097,-590.623 857.241,-799.562c638.846,-286.552 1245.71,-257.114 1812.89,24.539c14.863,7.46 103.972,64.734 88.706,58.137c-699.07,-302.112 -1429.86,196.17 -1897.26,920.983c16.467,-1.61 33.157,-2.432 50.036,-2.432c281.33,0 509.734,228.404 509.734,509.734c0,281.329 -228.404,509.733 -509.734,509.733c-176.027,0 -331.335,-89.42 -422.919,-225.252Z" style="fill:#61c8f1;"/><path d="M2720.09,3241.44c701.541,-137.162 430.068,-839.295 547.303,-1438.64c4.552,-23.269 120.854,374.601 173.334,565.654c8.255,30.053 104.619,381.971 32.158,774.73c-48.791,264.457 -193.487,564.294 -420.046,733.188c-355.432,222.437 -576.417,275.384 -974.402,269.987c-368.635,-7.418 -739.115,-123.106 -1111.86,-371.399c-556.826,-424.478 -820.741,-971.738 -844.108,-1604.57c-0.542,-16.621 7.23,-122.263 8.723,-105.701c68.368,758.483 855.13,1162.64 1715.16,1227.21c-9.277,-13.7 -17.969,-27.971 -26.029,-42.802c-134.337,-247.184 -42.72,-556.931 204.464,-691.268c247.184,-134.337 556.931,-42.719 691.267,204.465c84.055,154.663 79.649,333.819 4.035,479.148Z" style="fill:#58bb45;"/><path d="M2767.34,1047.26c-483.295,-526.686 -888.74,40.663 -1461.11,253.633c-22.221,8.269 204.758,-267.87 340.294,-412.388c21.32,-22.734 271.135,-288.675 643.936,-431.959c251.018,-96.478 582.287,-129.637 844.628,-24.607c375.297,186.982 535.842,347.801 739.051,690.04c186.161,318.263 280.947,694.634 263.821,1142.17c-71.262,696.533 -400.186,1207.37 -927.696,1557.74c-13.893,9.141 -106.786,59.177 -94.702,47.753c566.788,-535.827 455.362,-1432.7 151.036,-2103.57c-6.84,15.066 -14.472,29.93 -22.912,44.548c-140.665,243.639 -452.671,327.241 -696.309,186.576c-243.639,-140.665 -327.24,-452.67 -186.576,-696.309c88.014,-152.445 243.108,-242.235 406.534,-253.633Z" style="fill:#f03b32;"/></svg>