<?xml version="1.0" encoding="UTF-8" standalone="no"?><!DOCTYPE svg PUBLIC "-//W3C//DTD SVG 1.1//EN" "http://www.w3.org/Graphics/SVG/1.1/DTD/svg11.dtd"><svg width="100%" height="100%" viewBox="0 0 1667 417" version="1.1" xmlns="http://www.w3.org/2000/svg" xmlns:xlink="http://www.w3.org/1999/xlink" xml:space="preserve" xmlns:serif="http://www.serif.com/" style="fill-rule:evenodd;clip-rule:evenodd;stroke-linejoin:round;stroke-miterlimit:2;"><rect id="_400x100" serif:id="400x100" x="0" y="0" width="1666.67" height="416.667" style="fill:none;"/><g><text x="417.186px" y="322.65px" style="font-family:'SegoeUI-Semibold', 'Segoe UI', sans-serif;font-weight:600;font-size:326.528px;fill:#888;">OutNow</text></g><path d="M72.713,206.949c-19.57,62.219 41.071,68.835 84.013,104.348c1.667,1.379 -27.82,-4.421 -45.423,-8.538c-2.769,-0.647 -35.181,-8.255 -63.512,-31.177c-19.076,-15.434 -36.81,-40.098 -40.479,-65.621c-2.346,-38.187 3.037,-58.21 20.81,-89.882c16.657,-29.23 42.073,-53.891 78.22,-72.956c58.292,-26.147 113.665,-23.461 165.418,2.239c1.356,0.681 9.487,5.907 8.094,5.305c-63.787,-27.567 -130.468,17.899 -173.117,84.035c1.503,-0.147 3.026,-0.222 4.566,-0.222c25.67,0 46.511,20.841 46.511,46.511c0,25.67 -20.841,46.511 -46.511,46.511c-16.062,0 -30.233,-8.159 -38.59,-20.553Z" style="fill:#61c8f1;"/><path d="M239.669,309.307c64.013,-12.515 39.242,-76.582 49.939,-131.269c0.416,-2.123 11.028,34.181 15.816,51.613c0.754,2.743 9.546,34.853 2.934,70.691c-4.451,24.13 -17.654,51.489 -38.327,66.9c-32.431,20.296 -52.595,25.128 -88.91,24.635c-33.636,-0.677 -67.44,-11.233 -101.451,-33.888c-50.808,-38.732 -74.889,-88.667 -77.022,-146.41c-0.049,-1.517 0.66,-11.156 0.796,-9.645c6.239,69.208 78.027,106.086 156.501,111.977c-0.847,-1.25 -1.64,-2.552 -2.375,-3.905c-12.258,-22.555 -3.898,-50.818 18.656,-63.075c22.555,-12.258 50.818,-3.898 63.075,18.656c7.67,14.112 7.268,30.46 0.368,43.72Z" style="fill:#58bb45;"/><path d="M243.981,109.099c-44.099,-48.058 -81.094,3.71 -133.319,23.143c-2.028,0.754 18.683,-24.442 31.05,-37.629c1.945,-2.074 24.74,-26.34 58.756,-39.414c22.904,-8.803 53.131,-11.829 77.069,-2.245c34.244,17.061 48.893,31.735 67.435,62.963c16.986,29.04 25.635,63.382 24.072,104.218c-6.502,63.555 -36.515,110.167 -84.648,142.136c-1.267,0.835 -9.744,5.4 -8.641,4.358c51.717,-48.892 41.55,-130.728 13.781,-191.941c-0.624,1.374 -1.32,2.731 -2.09,4.064c-12.835,22.231 -41.304,29.86 -63.535,17.025c-22.231,-12.835 -29.859,-41.304 -17.024,-63.535c8.03,-13.91 22.182,-22.103 37.094,-23.143Z" style="fill:#f03b32;"/></svg>